<svg viewBox="0 0 400 400" xmlns="http://www.w3.org/2000/svg"><rect width="400" height="400" rx="24" fill="#f5f5f7"/><ellipse cx="200" cy="345" rx="80" ry="6" fill="#0d1b2a" opacity="0.10"/><rect x="168" y="60" width="64" height="28" rx="6" fill="#0d1b2a"/><line x1="174" y1="66" x2="174" y2="82" stroke="#ffffff" stroke-width="1.5" opacity="0.5"/><line x1="184" y1="66" x2="184" y2="82" stroke="#ffffff" stroke-width="1.5" opacity="0.5"/><line x1="216" y1="66" x2="216" y2="82" stroke="#ffffff" stroke-width="1.5" opacity="0.5"/><line x1="226" y1="66" x2="226" y2="82" stroke="#ffffff" stroke-width="1.5" opacity="0.5"/><rect x="180" y="88" width="40" height="16" fill="#0d1b2a"/><rect x="142" y="104" width="116" height="226" rx="20" fill="#0d1b2a"/><rect x="142" y="178" width="116" height="68" fill="#475569"/><path d="M 195 195 L 215 195 L 205 215 L 215 215 L 195 235 L 200 220 L 192 220 Z" fill="#ffffff"/><rect x="158" y="116" width="6" height="206" rx="3" fill="#ffffff" opacity="0.18"/></svg>