<svg viewBox="0 0 400 400" xmlns="http://www.w3.org/2000/svg"><rect width="400" height="400" rx="24" fill="#f5f5f7"/><ellipse cx="200" cy="350" rx="105" ry="6" fill="#0d1b2a" opacity="0.10"/><rect x="170" y="36" width="60" height="106" rx="10" fill="#0d1b2a"/><rect x="170" y="258" width="60" height="106" rx="10" fill="#0d1b2a"/><line x1="178" y1="60" x2="222" y2="60" stroke="#ffffff" stroke-width="1.5" opacity="0.3"/><line x1="178" y1="80" x2="222" y2="80" stroke="#ffffff" stroke-width="1.5" opacity="0.3"/><line x1="178" y1="100" x2="222" y2="100" stroke="#ffffff" stroke-width="1.5" opacity="0.3"/><line x1="178" y1="120" x2="222" y2="120" stroke="#ffffff" stroke-width="1.5" opacity="0.3"/><line x1="178" y1="280" x2="222" y2="280" stroke="#ffffff" stroke-width="1.5" opacity="0.3"/><line x1="178" y1="300" x2="222" y2="300" stroke="#ffffff" stroke-width="1.5" opacity="0.3"/><line x1="178" y1="320" x2="222" y2="320" stroke="#ffffff" stroke-width="1.5" opacity="0.3"/><line x1="178" y1="340" x2="222" y2="340" stroke="#ffffff" stroke-width="1.5" opacity="0.3"/><circle cx="200" cy="200" r="82" fill="#0d1b2a"/><circle cx="200" cy="200" r="68" fill="#162a40"/><circle cx="200" cy="200" r="74" stroke="#0fa3b1" stroke-width="4" fill="none"/><rect x="284" y="190" width="10" height="20" rx="2" fill="#0d1b2a"/><line x1="200" y1="132" x2="200" y2="140" stroke="#ffffff" stroke-width="2"/><line x1="268" y1="200" x2="260" y2="200" stroke="#ffffff" stroke-width="2"/><line x1="200" y1="268" x2="200" y2="260" stroke="#ffffff" stroke-width="2"/><line x1="132" y1="200" x2="140" y2="200" stroke="#ffffff" stroke-width="2"/><line x1="200" y1="200" x2="200" y2="155" stroke="#ffffff" stroke-width="4" stroke-linecap="round"/><line x1="200" y1="200" x2="238" y2="200" stroke="#0fa3b1" stroke-width="3" stroke-linecap="round"/><circle cx="200" cy="200" r="5" fill="#ffffff"/></svg>