<svg viewBox="0 0 400 400" xmlns="http://www.w3.org/2000/svg"><rect width="400" height="400" rx="24" fill="#f5f5f7"/><ellipse cx="200" cy="335" rx="130" ry="7" fill="#0d1b2a" opacity="0.10"/><ellipse cx="200" cy="200" rx="140" ry="80" fill="#0d1b2a"/><path d="M 80 180 Q 200 130 320 180" stroke="#ffffff" stroke-width="2" fill="none" opacity="0.18"/><path d="M 75 200 Q 65 175 65 200 Q 65 225 75 200" stroke="#0fa3b1" stroke-width="6" fill="none"/><path d="M 325 200 Q 335 175 335 200 Q 335 225 325 200" stroke="#0fa3b1" stroke-width="6" fill="none"/><line x1="178" y1="200" x2="222" y2="200" stroke="#ffffff" stroke-width="3" stroke-linecap="round"/><line x1="176" y1="188" x2="176" y2="212" stroke="#ffffff" stroke-width="3" stroke-linecap="round"/><line x1="188" y1="188" x2="188" y2="212" stroke="#ffffff" stroke-width="3" stroke-linecap="round"/><line x1="200" y1="188" x2="200" y2="212" stroke="#ffffff" stroke-width="3" stroke-linecap="round"/><line x1="212" y1="188" x2="212" y2="212" stroke="#ffffff" stroke-width="3" stroke-linecap="round"/><line x1="224" y1="188" x2="224" y2="212" stroke="#ffffff" stroke-width="3" stroke-linecap="round"/></svg>