<svg viewBox="0 0 400 400" xmlns="http://www.w3.org/2000/svg"><rect width="400" height="400" rx="24" fill="#f5f5f7"/><ellipse cx="200" cy="335" rx="155" ry="7" fill="#0d1b2a" opacity="0.10"/><path d="M 45 295 Q 45 328 90 328 L 330 328 Q 365 328 360 298 Q 358 282 340 280 L 60 282 Z" fill="#0d1b2a"/><rect x="50" y="296" width="312" height="5" fill="#ffffff" opacity="0.9"/><path d="M 62 282 Q 68 226 102 198 Q 138 168 188 158 L 252 158 Q 302 168 330 210 L 348 282 Z" fill="#0d1b2a"/><path d="M 75 226 Q 100 210 158 210" stroke="#ffffff" stroke-width="2" fill="none" opacity="0.55"/><path d="M 278 168 Q 282 218 300 252" stroke="#ffffff" stroke-width="2" fill="none" opacity="0.55"/><path d="M 95 252 Q 200 212 308 232" stroke="#f4b400" stroke-width="14" fill="none" stroke-linecap="round"/><g stroke="#ffffff" stroke-width="3" stroke-linecap="round"><line x1="160" y1="208" x2="208" y2="188"/><line x1="170" y1="224" x2="220" y2="206"/><line x1="180" y1="240" x2="232" y2="222"/><line x1="190" y1="256" x2="244" y2="238"/></g><circle cx="208" cy="188" r="4" fill="#f4b400"/></svg>