<svg viewBox="0 0 400 400" xmlns="http://www.w3.org/2000/svg"><rect width="400" height="400" rx="24" fill="#f5f5f7"/><ellipse cx="200" cy="335" rx="160" ry="7" fill="#0d1b2a" opacity="0.10"/><rect x="92" y="190" width="216" height="20" rx="3" fill="#0d1b2a"/><rect x="115" y="184" width="72" height="32" rx="4" fill="#0fa3b1"/><rect x="213" y="184" width="72" height="32" rx="4" fill="#0fa3b1"/><g fill="#ffffff" opacity="0.4"><rect x="123" y="190" width="2" height="20"/><rect x="133" y="190" width="2" height="20"/><rect x="143" y="190" width="2" height="20"/><rect x="153" y="190" width="2" height="20"/><rect x="163" y="190" width="2" height="20"/><rect x="173" y="190" width="2" height="20"/><rect x="221" y="190" width="2" height="20"/><rect x="231" y="190" width="2" height="20"/><rect x="241" y="190" width="2" height="20"/><rect x="251" y="190" width="2" height="20"/><rect x="261" y="190" width="2" height="20"/><rect x="271" y="190" width="2" height="20"/></g><rect x="62" y="135" width="48" height="130" rx="10" fill="#0d1b2a"/><circle cx="86" cy="200" r="14" fill="#0fa3b1"/><rect x="40" y="155" width="22" height="90" rx="6" fill="#0d1b2a"/><rect x="290" y="135" width="48" height="130" rx="10" fill="#0d1b2a"/><circle cx="314" cy="200" r="14" fill="#0fa3b1"/><rect x="338" y="155" width="22" height="90" rx="6" fill="#0d1b2a"/></svg>